<svg id="graphic-design" xmlns="http://www.w3.org/2000/svg" width="60" height="60" viewBox="0 0 60 60">
  <g id="XMLID_145_">
    <rect id="XMLID_164_" width="60" height="60" fill="#fff" opacity="0"/>
    <g id="XMLID_146_" transform="translate(12.5 11.5)">
      <path id="XMLID_159_" d="M47.321,44.34H43.313V18.925A.93.93,0,0,0,42.388,18H21.025a.93.93,0,0,0-.925.925V50.067a.93.93,0,0,0,.925.925H31.068v3.083a.93.93,0,0,0,.925.925H47.365a.93.93,0,0,0,.925-.925v-8.81A.97.97,0,0,0,47.321,44.34ZM41.463,19.85v4.713H21.95V19.85ZM31.024,45.265V49.1H21.95V26.457H41.463V44.34h-9.47A.97.97,0,0,0,31.024,45.265ZM46.4,53.15H32.918V46.235H46.4V53.15Z" transform="translate(-20.1 -18)" fill="#fff"/>
      <path id="XMLID_156_" d="M29.3,27.2a1.5,1.5,0,1,0-1.5-1.5A1.513,1.513,0,0,0,29.3,27.2Zm0-1.85a.4.4,0,1,1-.4.4A.395.395,0,0,1,29.3,25.345Z" transform="translate(-24.408 -21.469)" fill="#fff"/>
      <path id="XMLID_153_" d="M53.9,89.5A1.5,1.5,0,1,0,52.4,88,1.485,1.485,0,0,0,53.9,89.5Zm0-1.894a.4.4,0,1,1-.4.4A.395.395,0,0,1,53.9,87.6Z" transform="translate(-38.173 -56.327)" fill="#fff"/>
      <path id="XMLID_147_" d="M90.526,18.2h-4.8a.93.93,0,0,0-.925.925V42.779a1.565,1.565,0,0,0,.088.44l2.423,4.8a.927.927,0,0,0,1.674,0l2.423-4.8a1.3,1.3,0,0,0,.088-.44V19.125A.941.941,0,0,0,90.526,18.2Zm-2.379,7.268A1.474,1.474,0,0,0,89.6,24.19V41.854H86.65V24.19A1.555,1.555,0,0,0,88.148,25.468Zm-.4-1.5a.4.4,0,1,1,.4.4A.395.395,0,0,1,87.751,23.97Zm1.85-3.92v3.7a1.466,1.466,0,0,0-2.907,0v-3.7ZM88.148,45.51l-.881-1.762h1.762Z" transform="translate(-56.301 -18.112)" fill="#fff"/>
    </g>
  </g>
</svg>
