<svg id="business-solutions" xmlns="http://www.w3.org/2000/svg" width="60" height="60" viewBox="0 0 60 60">
  <g id="XMLID_60_">
    <rect id="XMLID_68_" width="60" height="60" fill="#fff" opacity="0"/>
    <g id="XMLID_61_" transform="translate(11.05 9.85)">
      <path id="XMLID_64_" d="M22.75,31.4,40.5,40.9a1.14,1.14,0,0,0,.55.15,1.008,1.008,0,0,0,.55-.15l17.75-9.5a1.173,1.173,0,0,0,0-2.1L41.6,19.85a1.083,1.083,0,0,0-1.1,0l-17.75,9.5a1.166,1.166,0,0,0-.65,1.05A1.094,1.094,0,0,0,22.75,31.4Zm18.3-9.2,15.2,8.15L41.05,38.5l-15.2-8.15Z" transform="translate(-22.1 -19.7)" fill="#fff"/>
      <path id="XMLID_63_" d="M59.4,54.962l-5.15-2.75a1.185,1.185,0,1,0-1.1,2.1l3.2,1.7L41.1,64.162l-15.2-8.15,3.25-1.75a1.185,1.185,0,0,0-1.1-2.1l-5.2,2.8a1.173,1.173,0,0,0,0,2.1l17.75,9.5a1.14,1.14,0,0,0,.55.15,1.008,1.008,0,0,0,.55-.15l17.75-9.5a1.166,1.166,0,0,0,.65-1.05A1.315,1.315,0,0,0,59.4,54.962Z" transform="translate(-22.15 -35.862)" fill="#fff"/>
      <path id="XMLID_62_" d="M59.4,74.062l-5-2.7a1.185,1.185,0,0,0-1.1,2.1l3.05,1.65L41.1,83.262l-15.2-8.15,3-1.6a1.185,1.185,0,0,0-1.1-2.1l-4.95,2.65a1.173,1.173,0,0,0,0,2.1l17.75,9.5a1.14,1.14,0,0,0,.55.15,1.008,1.008,0,0,0,.55-.15l17.75-9.5a1.166,1.166,0,0,0,.65-1.05A1.214,1.214,0,0,0,59.4,74.062Z" transform="translate(-22.15 -45.462)" fill="#fff"/>
    </g>
  </g>
</svg>
