<svg id="digital-marketing" xmlns="http://www.w3.org/2000/svg" width="60" height="60" viewBox="0 0 60 60">
  <g id="XMLID_95_">
    <rect id="XMLID_107_" width="60" height="60" fill="#fff" opacity="0"/>
    <g id="XMLID_96_" transform="translate(9.8 13.5)">
      <g id="XMLID_97_">
        <path id="XMLID_98_" d="M33.4,38a.9.9,0,1,0,0-1.8H28.8a1.846,1.846,0,0,0-1.85,1.85v4.6A1.846,1.846,0,0,0,28.8,44.5h4.6a.9.9,0,1,0,0-1.8H28.8V38Zm17.4-1.85H40.7a.9.9,0,1,0,0,1.8H50.8v4.6H46.2a.9.9,0,1,0,0,1.8h4.6a1.846,1.846,0,0,0,1.85-1.85V38A1.879,1.879,0,0,0,50.8,36.15Zm-13.05,2.1a.909.909,0,0,0-1.35,0,.922.922,0,0,0-.25.8v7.2a.9.9,0,0,0,.9.9c.1,0,.2-.05.3-.05h.05l1.8-.7,1.55,3.85a.9.9,0,0,0,1.2.5.975.975,0,0,0,.45-1.25l-1.5-3.7,1.65-.65h0a.806.806,0,0,0,.35-.2.909.909,0,0,0,0-1.35Zm.2,6.65V41.2l2.65,2.7Zm20.2,7.75V28.85A1.846,1.846,0,0,0,56.3,27h-33a1.846,1.846,0,0,0-1.85,1.85V52.7a1.846,1.846,0,0,0-1.85,1.85V58.2a1.846,1.846,0,0,0,1.85,1.85H58.1a1.846,1.846,0,0,0,1.85-1.85V54.5A1.836,1.836,0,0,0,58.15,52.65ZM23.3,28.85h33V32.5h-33Zm0,5.5h33V52.7h-33Zm34.85,23.8H21.45V54.5H58.1v3.65Z" transform="translate(-19.6 -27)" fill="#fff"/>
      </g>
    </g>
  </g>
</svg>
