<svg xmlns="http://www.w3.org/2000/svg" width="60" height="60" viewBox="0 0 60 60">
  <g id="maintenance-and-support" transform="translate(-1499)">
    <g id="XMLID_107_" transform="translate(1499)">
      <rect id="XMLID_120_" width="60" height="60" fill="#fff" opacity="0"/>
      <g id="XMLID_108_" transform="translate(10.2 10.2)">
        <g id="XMLID_109_">
          <path id="XMLID_117_" d="M49.286,46.719s9.286-4.225,9.286-13.279L53.743,28.7a12.325,12.325,0,0,0-4.457-.6,12.325,12.325,0,0,0-4.457.6L40,33.486C40,42.54,49.286,46.719,49.286,46.719ZM45.711,30.1a10.247,10.247,0,0,1,3.575-.464,10.247,10.247,0,0,1,3.575.464l3.854,3.947c0,7.382-7.429,10.818-7.429,10.818s-7.429-3.436-7.429-10.818L45.711,30.1Z" transform="translate(-29.785 -23.411)" fill="#fff"/>
          <path id="XMLID_114_" d="M55.655,18H19.346A1.347,1.347,0,0,0,18,19.346v25.3A1.347,1.347,0,0,0,19.346,46H55.655A1.347,1.347,0,0,0,57,44.651v-25.3A1.347,1.347,0,0,0,55.655,18ZM55.33,44.372H19.671v-24.7H55.33Z" transform="translate(-18 -18)" fill="#fff"/>
          <path id="XMLID_111_" d="M54.73,82.543a1.358,1.358,0,0,0-1.254-.743H43.633a1.464,1.464,0,0,0-1.254.743L38.758,89.6a1.11,1.11,0,0,0,.975,1.625H57.377a1.11,1.11,0,0,0,.975-1.625ZM40.662,89.507l3.157-6.036h9.518l3.111,6.036Z" transform="translate(-29.054 -52.177)" fill="#fff"/>
          <path id="XMLID_110_" d="M59.3,40.461,58.14,39.3l-4.457,4.5-2.322-2.229L50.2,42.736l3.482,3.482Z" transform="translate(-35.249 -29.41)" fill="#fff"/>
        </g>
      </g>
    </g>
  </g>
</svg>
