<svg xmlns="http://www.w3.org/2000/svg" width="60" height="60" viewBox="0 0 60 60">
  <g id="content-creation" transform="translate(0 -10)">
    <g id="XMLID_172_" transform="translate(0 10)">
      <rect id="XMLID_195_" width="60" height="60" fill="#fff" opacity="0"/>
      <g id="XMLID_173_" transform="translate(10.65 7.45)">
        <g id="XMLID_174_">
          <path id="XMLID_188_" d="M48.5,35A11.5,11.5,0,0,0,37,46.5a11.784,11.784,0,0,0,1.8,6.2,11.427,11.427,0,0,0,3.35,3.4,2.657,2.657,0,0,0,0,3.7,2.791,2.791,0,0,0-.75,1.85,2.689,2.689,0,0,0,2.7,2.7h.35v.35c0,1.7,1.75,3,3.95,3h.2c2.2,0,3.95-1.3,3.95-3v-.35h.35a2.689,2.689,0,0,0,2.7-2.7,2.791,2.791,0,0,0-.75-1.85,2.791,2.791,0,0,0,.75-1.85,2.6,2.6,0,0,0-.75-1.85A11.508,11.508,0,0,0,48.5,35Zm2.4,29.65c0,.6-.95,1.3-2.3,1.3h-.2c-1.35,0-2.3-.7-2.3-1.3V64.3h4.8v.35Zm2-2H44.1a1,1,0,0,1,0-2h8.85a1,1,0,0,1,1,1A1.015,1.015,0,0,1,52.9,62.65Zm0-3.7H44.1a1,1,0,1,1,0-2h8.85a1,1,0,0,1,1,1A1.015,1.015,0,0,1,52.9,58.95ZM46.55,49.3H50.4a30.025,30.025,0,0,0-1.55,5.95H48.1A24.36,24.36,0,0,0,46.55,49.3Zm6.35,5.95H50.55a21.425,21.425,0,0,1,1.9-6.4.859.859,0,0,0,0-.85.882.882,0,0,0-.75-.4H45.25a.882.882,0,0,0-.75.4.859.859,0,0,0,0,.85,21.425,21.425,0,0,1,1.9,6.4H44.05a9.825,9.825,0,1,1,8.85,0Z" transform="translate(-29.15 -27.35)" fill="#fff"/>
          <g id="XMLID_175_">
            <g id="XMLID_186_" transform="translate(18.5)">
              <path id="XMLID_187_" d="M59.15,24.95a.843.843,0,0,1-.85-.85V20.55a.85.85,0,0,1,1.7,0V24.1A.876.876,0,0,1,59.15,24.95Z" transform="translate(-58.3 -19.7)" fill="#fff"/>
            </g>
            <g id="XMLID_181_" transform="translate(5.288 5.387)">
              <g id="XMLID_184_" transform="translate(0 0)">
                <path id="XMLID_185_" d="M35.287,34.738a.923.923,0,0,1-.6-.25l-2.55-2.55a.849.849,0,1,1,1.2-1.2l2.55,2.55a.817.817,0,0,1,0,1.2A1.039,1.039,0,0,1,35.287,34.738Z" transform="translate(-31.875 -30.475)" fill="#fff"/>
              </g>
              <g id="XMLID_182_" transform="translate(23.85)">
                <path id="XMLID_183_" d="M80.438,34.737a.923.923,0,0,1-.6-.25.817.817,0,0,1,0-1.2l2.55-2.55a.849.849,0,1,1,1.2,1.2l-2.55,2.55A.923.923,0,0,1,80.438,34.737Z" transform="translate(-79.575 -30.475)" fill="#fff"/>
              </g>
            </g>
            <g id="XMLID_176_" transform="translate(0 17.75)">
              <g id="XMLID_179_">
                <path id="XMLID_180_" d="M25.7,56.9H22.15a.85.85,0,1,1,0-1.7H25.7a.843.843,0,0,1,.85.85A.875.875,0,0,1,25.7,56.9Z" transform="translate(-21.3 -55.2)" fill="#fff"/>
              </g>
              <g id="XMLID_177_" transform="translate(33.5)">
                <path id="XMLID_178_" d="M92.7,56.9H89.15a.85.85,0,0,1,0-1.7H92.7a.85.85,0,1,1,0,1.7Z" transform="translate(-88.3 -55.2)" fill="#fff"/>
              </g>
            </g>
          </g>
        </g>
      </g>
    </g>
  </g>
</svg>
